<svg width="264" height="246" viewBox="0 0 264 246" fill="none" xmlns="http://www.w3.org/2000/svg">
<g filter="url(#filter0_d_39_2037)">
<g opacity="0.1">
<path d="M252.346 90.2562C252.346 90.2562 253.24 94.1316 250.275 98.4585C250.275 98.4585 255.119 98.3094 257.448 101.516C257.448 101.516 256.672 96.8553 259.999 93.3134C259.999 93.3134 255.452 94.1337 252.346 90.2562Z" fill="white"/>
</g>
<path d="M6.94257 150.065C6.94257 150.065 8.2133 155.572 4 161.722C4 161.722 10.8836 161.51 14.194 166.066C14.194 166.066 13.0905 159.443 17.8197 154.409C17.8197 154.409 11.3565 155.575 6.94257 150.065Z" fill="white"/>
<path d="M237.836 149.617C237.836 149.617 238.73 153.492 235.766 157.819C235.766 157.819 240.609 157.67 242.938 160.876C242.938 160.876 242.162 156.216 245.49 152.674C245.49 152.674 240.942 153.494 237.836 149.617Z" fill="white"/>
<g opacity="0.300003">
<g opacity="0.300003">
<path opacity="0.300003" d="M245.292 228.845C245.292 232.872 194.837 236.136 132.598 236.136C70.359 236.136 19.9043 232.872 19.9043 228.845C19.9043 224.818 70.359 221.554 132.598 221.554C194.837 221.554 245.292 224.818 245.292 228.845Z" fill="#000072"/>
</g>
</g>
<path d="M227.451 219.731C222.978 224.96 216.417 227.901 209.566 227.901H55.6141C48.7631 227.901 42.202 224.96 37.7297 219.731C35.2589 216.841 33.4323 213.621 32.2038 210.327C32.1992 210.327 32.1992 210.327 32.1992 210.322C28.3343 199.985 30.3036 188.892 36.469 184.902C46.8214 178.193 54.8043 186.391 54.8043 186.391C55.6877 184.298 56.884 182.484 58.2229 180.93C63.2657 175.056 70.3329 172.82 70.3329 172.82C66.491 150.601 75.0675 130.47 75.0675 130.47C75.0675 130.47 96.2002 146.574 132.59 146.574C168.98 146.574 190.113 130.47 190.113 130.47C190.113 130.47 198.689 150.601 194.847 172.82C194.847 172.82 206.161 176.402 210.376 186.391C210.376 186.391 218.359 178.193 228.711 184.902C236.841 190.167 237.674 207.784 227.451 219.731Z" fill="#B11313"/>
<g opacity="0.300003">
<g opacity="0.300003">
<path opacity="0.300003" d="M60.9425 206.874C62.3689 192.951 54.8047 186.942 54.8047 186.942C55.6881 184.85 56.8844 183.036 58.2233 181.481C69.9561 195.632 60.9425 206.874 60.9425 206.874Z" fill="#000072"/>
</g>
</g>
<g opacity="0.300003">
<g opacity="0.300003">
<path opacity="0.300003" d="M204.288 206.874C202.862 192.951 210.426 186.942 210.426 186.942C209.542 184.85 208.346 183.036 207.007 181.481C195.274 195.632 204.288 206.874 204.288 206.874Z" fill="#000072"/>
</g>
</g>
<g opacity="0.300003">
<g opacity="0.300003">
<path opacity="0.300003" d="M205.47 218.557C204.374 218.281 203.244 218.187 202.121 218.311C200.521 218.488 197.768 218.763 193.73 219.068C187.653 219.527 182.346 214.923 181.931 208.792C181.753 206.158 182.144 204.113 182.285 203.48C180.698 210.321 177.768 216.623 175.981 220.079C166.911 220.461 155.423 220.771 141.216 220.862C140.45 193.182 156.396 167.228 156.396 167.228C131.963 186.937 108.808 167.228 108.808 167.228C124.93 196.084 124.091 219.66 124.091 219.66L126.806 220.877C111.292 220.811 98.8853 220.486 89.223 220.08C87.4363 216.623 84.5058 210.321 82.9188 203.48C83.0662 204.138 83.483 206.324 83.2487 209.112C82.7445 215.111 77.4324 219.519 71.4781 219.068C67.4379 218.763 64.6838 218.488 63.0832 218.311C61.9602 218.187 60.8301 218.281 59.7338 218.557C42.2167 222.954 32.5098 211.26 32.1973 210.872C33.4258 214.167 35.2524 217.386 37.7232 220.277C42.1954 225.506 48.7566 228.447 55.6076 228.447H132.602H209.596C216.448 228.447 223.009 225.506 227.481 220.277C229.952 217.386 231.778 214.167 233.007 210.872C232.694 211.26 222.987 222.954 205.47 218.557Z" fill="#000072"/>
</g>
</g>
<g opacity="0.300003">
<g opacity="0.300003">
<path opacity="0.300003" d="M82.9284 203.489C82.8982 203.356 82.8789 203.283 82.8789 203.283C82.8948 203.352 82.9122 203.42 82.9284 203.489Z" fill="#000072"/>
</g>
</g>
<g opacity="0.300003">
<g opacity="0.300003">
<path opacity="0.300003" d="M182.283 203.489C182.299 203.42 182.317 203.352 182.333 203.283C182.333 203.283 182.313 203.356 182.283 203.489Z" fill="#000072"/>
</g>
</g>
<path d="M132.574 226.843H209.569C216.028 226.843 222.107 224.068 226.247 219.231C231.595 212.981 234.233 204.327 233.13 196.644C232.484 192.147 230.561 188.56 227.853 186.805C218.697 180.87 211.804 187.774 211.515 188.07C211.143 188.453 210.605 188.625 210.081 188.524C209.557 188.424 209.118 188.067 208.91 187.573C205.028 178.37 194.477 174.941 194.371 174.907C193.608 174.666 193.14 173.891 193.277 173.096C196.333 155.439 191.286 138.918 189.353 133.505C183.567 137.32 163.658 148.734 132.593 148.734C101.528 148.734 81.6181 137.32 75.8324 133.505C73.8998 138.918 68.8528 155.439 71.9082 173.096C72.0457 173.891 71.5779 174.666 70.8143 174.907C70.7101 174.941 60.1427 178.407 56.276 187.573C56.0675 188.067 55.6281 188.424 55.1049 188.524C54.5818 188.624 54.0431 188.453 53.6701 188.07C53.3821 187.779 46.4295 180.907 37.3323 186.805C34.6246 188.56 32.7013 192.147 32.0558 196.644C30.9532 204.327 33.5905 212.981 38.9388 219.231C43.0789 224.068 49.1576 226.843 55.6164 226.843H132.574ZM209.569 230.06H55.6164C48.2293 230.06 41.2701 226.878 36.5237 221.332C30.5893 214.398 27.6675 204.761 28.8987 196.184C29.6879 190.684 32.0705 186.391 35.6073 184.099C44.0247 178.643 51.1269 182.206 54.2479 184.426C58.2067 177.116 65.5518 173.531 68.5495 172.321C65.2112 150.432 73.2533 131.208 73.6041 130.384C73.7976 129.93 74.1874 129.591 74.6612 129.465C75.1357 129.338 75.6405 129.438 76.0314 129.736C76.2381 129.893 97.2236 145.517 132.593 145.517C167.962 145.517 188.948 129.893 189.156 129.735C189.547 129.438 190.053 129.338 190.525 129.465C190.999 129.592 191.389 129.931 191.582 130.384C191.933 131.208 199.974 150.432 196.636 172.321C199.634 173.531 206.979 177.116 210.938 184.426C214.058 182.206 221.16 178.641 229.578 184.099C233.115 186.391 235.498 190.683 236.287 196.184C237.518 204.761 234.597 214.398 228.662 221.332C223.915 226.878 216.956 230.06 209.569 230.06Z" fill="#000072"/>
<path d="M55.7366 185.632C55.9116 185.753 55.9931 185.819 56.1137 185.909C56.228 185.994 56.3202 186.076 56.4246 186.161C56.6318 186.329 56.807 186.507 56.9947 186.683C57.1868 186.855 57.3451 187.045 57.5176 187.229C57.6914 187.412 57.8544 187.601 58.0074 187.796C58.6429 188.564 59.1773 189.392 59.6537 190.247C60.6088 191.957 61.2432 193.8 61.6843 195.656C62.1143 197.52 62.2732 199.413 62.2734 201.281C62.2767 202.215 62.1734 203.146 62.1104 204.066C61.9729 204.985 61.8227 205.897 61.6319 206.796C61.5954 206.967 61.428 207.076 61.258 207.04C61.1288 207.012 61.0353 206.908 61.0136 206.784L61.01 206.762C60.8537 205.859 60.7564 204.969 60.6388 204.087L60.4103 202.775C60.3266 202.341 60.2954 201.902 60.1809 201.476C59.9666 200.624 59.8518 199.762 59.5814 198.939C59.4636 198.524 59.3712 198.104 59.243 197.696L58.8316 196.486C58.2642 194.889 57.571 193.361 56.7358 191.949C56.5184 191.603 56.3148 191.245 56.0785 190.917L55.7369 190.414L55.3706 189.936C55.1383 189.606 54.8689 189.317 54.6167 189.019C54.4867 188.878 54.3577 188.725 54.2265 188.599C54.1634 188.534 54.0961 188.458 54.0366 188.402C53.9835 188.35 53.8966 188.268 53.8907 188.256L53.5464 187.559C53.1768 186.81 53.4789 185.901 54.2214 185.528C54.7244 185.276 55.3023 185.336 55.7366 185.632Z" fill="#000072"/>
<path d="M211.268 188.256C211.262 188.268 211.175 188.35 211.122 188.402C211.062 188.458 210.995 188.535 210.932 188.599C210.8 188.725 210.671 188.878 210.541 189.019C210.289 189.317 210.02 189.606 209.788 189.936L209.421 190.414L209.08 190.917C208.843 191.245 208.64 191.603 208.422 191.949C207.587 193.361 206.894 194.889 206.327 196.486L205.915 197.697C205.787 198.104 205.695 198.524 205.577 198.939C205.306 199.762 205.192 200.624 204.977 201.476C204.863 201.902 204.832 202.341 204.748 202.775L204.519 204.087C204.402 204.969 204.305 205.859 204.148 206.762L204.145 206.784C204.115 206.957 203.952 207.072 203.78 207.042C203.65 207.019 203.553 206.919 203.526 206.796C203.336 205.897 203.185 204.986 203.048 204.066C202.985 203.146 202.882 202.215 202.885 201.281C202.885 199.413 203.044 197.52 203.474 195.656C203.915 193.8 204.55 191.957 205.504 190.247C205.981 189.392 206.515 188.565 207.151 187.796C207.304 187.601 207.467 187.412 207.641 187.229C207.813 187.045 207.971 186.855 208.164 186.683C208.351 186.507 208.526 186.329 208.734 186.161C208.838 186.076 208.93 185.995 209.045 185.909C209.165 185.819 209.247 185.753 209.422 185.633C210.107 185.162 211.041 185.34 211.508 186.031C211.825 186.5 211.846 187.083 211.613 187.557L211.268 188.256Z" fill="#000072"/>
<path d="M71.9219 173.181L72.0518 174.466L72.2142 175.904C72.2714 176.394 72.3475 176.885 72.3894 177.401C72.4363 177.915 72.464 178.448 72.4381 179.024L72.438 179.027C72.434 179.117 72.358 179.187 72.268 179.183C72.2358 179.182 72.2063 179.171 72.1818 179.153C71.7132 178.821 71.3099 178.439 70.961 178.023C70.6036 177.61 70.3111 177.159 70.0259 176.697C69.747 176.232 69.4932 175.749 69.2722 175.242C69.1682 174.987 69.0605 174.73 68.9768 174.459C68.9316 174.325 68.8909 174.187 68.8544 174.045C68.815 173.892 68.7885 173.78 68.7544 173.563C68.616 172.685 69.2095 171.86 70.0801 171.721C70.9507 171.582 71.7686 172.18 71.9068 173.058C71.9113 173.086 71.9149 173.114 71.9179 173.142L71.9219 173.181Z" fill="#000072"/>
<path d="M196.467 173.563C196.433 173.78 196.407 173.892 196.367 174.045C196.331 174.187 196.29 174.325 196.245 174.459C196.161 174.73 196.053 174.987 195.949 175.242C195.728 175.749 195.474 176.232 195.196 176.697C194.91 177.159 194.618 177.61 194.261 178.023C193.912 178.439 193.508 178.821 193.04 179.153C192.966 179.206 192.865 179.188 192.813 179.114C192.794 179.087 192.785 179.057 192.783 179.027L192.783 179.024C192.757 178.448 192.785 177.915 192.832 177.401C192.874 176.885 192.95 176.394 193.007 175.904L193.17 174.466L193.3 173.181L193.303 173.147C193.393 172.263 194.176 171.619 195.053 171.709C195.93 171.8 196.568 172.59 196.479 173.474C196.476 173.502 196.471 173.535 196.467 173.563Z" fill="#000072"/>
<path d="M79.6595 189.123C79.6595 189.123 72.3576 183.413 70.3365 173.372C70.3365 173.372 66.1357 171.231 63.2324 177.024C63.2324 177.024 66.5815 194.708 82.8785 203.277C82.8785 203.277 80.5236 194.174 79.6595 189.123Z" fill="#0096F2"/>
<path d="M64.9212 177.254C65.579 179.954 69.1208 192.285 80.3934 199.92C79.6802 197.002 78.7348 192.969 78.1927 189.983C76.5017 188.506 70.9981 183.16 68.9762 174.612C68.058 174.453 66.4049 174.639 64.9212 177.254ZM82.8796 204.886C82.6277 204.886 82.3748 204.826 82.1422 204.704C65.3542 195.875 61.8097 178.078 61.667 177.325C61.6009 176.977 61.6512 176.615 61.8103 176.298C63.6238 172.68 65.9951 171.654 67.665 171.431C69.5128 171.182 70.9046 171.858 71.0572 171.936C71.493 172.158 71.804 172.569 71.9011 173.052C73.7727 182.351 80.5722 187.8 80.6406 187.854C80.9527 188.1 81.1654 188.456 81.2326 188.85C82.0753 193.775 84.3999 202.781 84.4233 202.871C84.5823 203.487 84.3668 204.139 83.8735 204.536C83.5852 204.767 83.2336 204.886 82.8796 204.886Z" fill="#000072"/>
<path d="M185.565 189.123C185.565 189.123 192.866 183.413 194.888 173.372C194.888 173.372 199.088 171.231 201.992 177.024C201.992 177.024 198.643 194.708 182.346 203.277C182.346 203.277 184.701 194.174 185.565 189.123Z" fill="#0096F2"/>
<path d="M187.032 189.983C186.49 192.969 185.545 197.002 184.831 199.92C196.103 192.285 199.645 179.956 200.304 177.253C199.405 175.666 198.343 174.78 197.141 174.62C196.803 174.575 196.495 174.594 196.244 174.634C194.218 183.169 188.722 188.507 187.032 189.983ZM182.345 204.886C181.991 204.886 181.64 204.767 181.351 204.535C180.858 204.139 180.643 203.487 180.802 202.871C180.825 202.781 183.15 193.775 183.992 188.85C184.06 188.455 184.271 188.1 184.584 187.854C184.653 187.8 191.452 182.351 193.324 173.052C193.421 172.569 193.732 172.158 194.168 171.936C194.32 171.859 195.712 171.182 197.56 171.431C199.23 171.654 201.601 172.68 203.414 176.298C203.574 176.615 203.624 176.977 203.558 177.325C203.415 178.078 199.871 195.875 183.083 204.704C182.85 204.825 182.597 204.886 182.345 204.886Z" fill="#000072"/>
<path d="M101.662 148.039C101.662 148.039 104.404 155.876 103.615 167.309L112.648 175.234C112.648 175.234 115.008 161.421 110.988 149.949L101.662 148.039Z" fill="#0096F2"/>
<path d="M105.253 166.616L111.43 172.035C111.848 167.627 112.205 158.986 109.767 151.34L103.9 150.138C104.659 153.319 105.67 159.172 105.253 166.616ZM112.645 176.842C112.266 176.842 111.892 176.705 111.598 176.447L102.565 168.521C102.187 168.19 101.986 167.699 102.021 167.197C102.774 156.271 100.18 148.647 100.154 148.572C99.9646 148.026 100.08 147.418 100.457 146.982C100.835 146.546 101.415 146.35 101.976 146.462L111.302 148.372C111.851 148.484 112.302 148.879 112.488 149.412C116.601 161.145 114.316 174.926 114.217 175.507C114.119 176.079 113.722 176.554 113.18 176.748C113.005 176.811 112.824 176.842 112.645 176.842Z" fill="#000072"/>
<path d="M163.563 148.039C163.563 148.039 160.821 155.876 161.61 167.309L152.577 175.234C152.577 175.234 150.217 161.421 154.237 149.949L163.563 148.039Z" fill="#0096F2"/>
<path d="M155.453 151.34C153.01 158.999 153.368 167.634 153.788 172.037L159.966 166.616C159.549 159.171 160.561 153.319 161.319 150.138L155.453 151.34ZM152.575 176.842C152.395 176.842 152.214 176.811 152.04 176.748C151.497 176.554 151.101 176.079 151.003 175.507C150.904 174.926 148.619 161.145 152.731 149.412C152.918 148.879 153.368 148.484 153.918 148.372L163.243 146.462C163.806 146.345 164.387 146.546 164.764 146.983C165.141 147.419 165.256 148.026 165.065 148.572C165.024 148.693 162.448 156.304 163.199 167.197C163.234 167.699 163.032 168.19 162.655 168.521L153.622 176.447C153.327 176.705 152.954 176.842 152.575 176.842Z" fill="#000072"/>
<path d="M123.602 223.428C121.329 234.683 108.373 239.833 99.2671 232.934C92.1401 227.538 84.3136 215.197 79.4779 188.134C79.0178 185.541 78.5807 182.808 78.1758 179.936L81.2539 176.994L101.66 157.48C101.66 157.48 121.762 188.863 123.989 212.919V212.924C124.338 216.649 124.256 220.199 123.602 223.428Z" fill="#B11313"/>
<g opacity="0.300003">
<g opacity="0.300003">
<path opacity="0.300003" d="M123.603 223.428C121.33 234.683 108.373 239.833 99.2675 232.934C92.1404 227.538 84.314 215.197 79.4782 188.134C72.6732 184 70.3359 173.371 70.3359 173.371C67.4004 159.257 70.7868 146.248 70.7868 146.248C70.1424 163.427 76.9043 171.622 79.6933 174.252C80.4704 174.985 81.0135 175.931 81.2502 176.977C81.2516 176.983 81.2529 176.989 81.2542 176.995C86.2372 199.228 94.5836 226.314 106.694 228.253C118.385 230.123 123.423 214.766 123.989 212.924C124.339 216.649 124.256 220.199 123.603 223.428Z" fill="#000072"/>
</g>
</g>
<path d="M103.41 155.979C105.734 158.531 107.571 161.377 109.237 164.318C110.063 165.791 110.817 167.303 111.567 168.817C112.316 170.332 113.05 171.854 113.765 173.386C116.629 179.512 119.236 185.775 121.402 192.23C123.57 198.676 125.316 205.336 125.952 212.271C126.258 215.733 126.277 219.275 125.694 222.821C125.567 223.692 125.383 224.626 125.099 225.526C124.841 226.432 124.476 227.306 124.08 228.163C123.254 229.863 122.154 231.43 120.842 232.786C118.19 235.471 114.686 237.281 110.967 237.813C109.112 238.106 107.206 238.042 105.357 237.711C103.51 237.357 101.726 236.689 100.095 235.768C99.2971 235.292 98.4937 234.769 97.8004 234.192L96.7607 233.332C96.4097 233.049 96.1082 232.721 95.7802 232.418C95.4636 232.104 95.1263 231.807 94.828 231.479L93.9384 230.491C93.3245 229.847 92.8153 229.131 92.2642 228.444C90.1349 225.644 88.4366 222.599 86.9456 219.494C85.4304 216.393 84.272 213.167 83.15 209.942C82.1089 206.693 81.1605 203.422 80.3803 200.118C79.9948 198.465 79.5807 196.817 79.2661 195.153C78.942 193.49 78.5537 191.838 78.3181 190.161C77.7964 186.815 77.5515 183.423 77.8385 179.983C77.8547 179.788 78.0242 179.644 78.2171 179.66C78.3515 179.672 78.4618 179.758 78.5108 179.876L78.515 179.886C79.1782 181.484 79.6799 183.098 80.1125 184.719C80.5385 186.342 80.98 187.955 81.3145 189.587C81.6345 191.224 82.0095 192.843 82.3625 194.469C82.6977 196.1 83.1297 197.703 83.5326 199.314C84.3477 202.533 85.323 205.698 86.3802 208.825C87.514 211.916 88.679 215.004 90.1603 217.909C91.6113 220.825 93.2663 223.624 95.2111 226.144C95.7134 226.758 96.1793 227.409 96.7288 227.971L97.5246 228.842C97.7906 229.132 98.0869 229.383 98.3658 229.657C98.6535 229.918 98.92 230.209 99.224 230.446L100.122 231.176C100.717 231.666 101.325 232.044 101.96 232.422C103.242 233.129 104.624 233.634 106.052 233.897C107.481 234.136 108.952 234.181 110.388 233.938C113.272 233.509 115.984 232.063 118.021 229.982C119.036 228.936 119.888 227.731 120.533 226.416C120.838 225.751 121.128 225.075 121.329 224.366C121.554 223.665 121.698 222.947 121.814 222.157C122.331 219.073 122.336 215.842 122.057 212.62C121.775 209.394 121.207 206.164 120.471 202.963C119.74 199.759 118.826 196.582 117.81 193.434C115.771 187.136 113.28 180.961 110.527 174.905C109.84 173.39 109.133 171.883 108.411 170.384C107.693 168.882 106.937 167.4 106.236 165.888C104.822 162.872 103.489 159.807 102.438 156.566L102.434 156.555C102.335 156.249 102.501 155.919 102.804 155.819C103.026 155.746 103.261 155.816 103.41 155.979Z" fill="#000072"/>
<path d="M83.9431 208.479C83.5136 208.479 83.0851 208.306 82.7709 207.963C82.1737 207.31 82.2132 206.294 82.8596 205.691C83.4514 205.139 97.5994 192.161 119.261 190.528C120.137 190.457 120.904 191.126 120.97 192.012C121.036 192.898 120.377 193.67 119.498 193.736C98.9865 195.282 85.1617 207.926 85.0244 208.054C84.7178 208.339 84.3298 208.479 83.9431 208.479Z" fill="#000072"/>
<path d="M141.616 223.428C143.889 234.683 156.845 239.833 165.951 232.934C173.078 227.538 180.904 215.197 185.74 188.134C186.2 185.541 186.637 182.808 187.042 179.936L183.964 176.994L163.558 157.48C163.558 157.48 143.456 188.863 141.229 212.919V212.924C140.879 216.649 140.962 220.199 141.616 223.428Z" fill="#B11313"/>
<g opacity="0.300003">
<g opacity="0.300003">
<path opacity="0.300003" d="M141.629 223.432C143.902 234.687 156.859 239.837 165.964 232.938C173.091 227.542 180.918 215.201 185.754 188.138C192.559 184.004 194.896 173.375 194.896 173.375C197.831 159.261 194.445 146.252 194.445 146.252C195.09 163.431 188.328 171.626 185.539 174.256C184.761 174.989 184.218 175.935 183.982 176.981C183.98 176.987 183.979 176.993 183.978 176.998C178.995 199.231 170.648 226.317 158.538 228.257C146.847 230.127 141.809 214.769 141.243 212.928C140.893 216.653 140.976 220.202 141.629 223.432Z" fill="#000072"/>
</g>
</g>
<path d="M162.791 156.566C161.74 159.806 160.407 162.872 158.993 165.888C158.292 167.4 157.536 168.882 156.818 170.384C156.096 171.883 155.389 173.39 154.702 174.905C151.949 180.961 149.458 187.136 147.419 193.434C146.402 196.582 145.489 199.759 144.758 202.963C144.022 206.164 143.454 209.394 143.172 212.62C142.893 215.842 142.898 219.073 143.415 222.157C143.531 222.947 143.675 223.665 143.9 224.366C144.1 225.075 144.391 225.751 144.696 226.416C145.341 227.731 146.193 228.936 147.208 229.982C149.245 232.063 151.957 233.509 154.841 233.938C156.277 234.181 157.748 234.136 159.177 233.897C160.605 233.634 161.987 233.129 163.269 232.422C163.904 232.044 164.512 231.666 165.107 231.176L166.005 230.446C166.309 230.209 166.575 229.918 166.863 229.657C167.142 229.383 167.438 229.132 167.704 228.842L168.5 227.971C169.05 227.409 169.516 226.757 170.018 226.144C171.963 223.624 173.618 220.825 175.069 217.909C176.55 215.004 177.715 211.916 178.849 208.825C179.906 205.698 180.881 202.533 181.696 199.314C182.099 197.703 182.531 196.1 182.867 194.469C183.22 192.843 183.595 191.224 183.914 189.587C184.249 187.955 184.691 186.342 185.117 184.719C185.549 183.098 186.051 181.484 186.714 179.886L186.718 179.876C186.793 179.696 186.998 179.611 187.177 179.686C187.301 179.739 187.38 179.856 187.391 179.983C187.678 183.423 187.433 186.815 186.911 190.161C186.675 191.838 186.287 193.49 185.963 195.153C185.648 196.818 185.234 198.465 184.849 200.118C184.069 203.422 183.12 206.693 182.079 209.942C180.957 213.167 179.799 216.393 178.283 219.494C176.792 222.599 175.094 225.644 172.965 228.444C172.414 229.131 171.905 229.847 171.291 230.491L170.401 231.479C170.103 231.807 169.765 232.104 169.449 232.418C169.121 232.721 168.819 233.049 168.468 233.332L167.429 234.192C166.735 234.769 165.932 235.292 165.134 235.768C163.503 236.688 161.719 237.357 159.872 237.711C158.023 238.042 156.117 238.106 154.262 237.813C150.543 237.281 147.039 235.471 144.387 232.786C143.075 231.43 141.975 229.863 141.149 228.163C140.753 227.306 140.388 226.432 140.13 225.526C139.846 224.626 139.662 223.692 139.535 222.821C138.952 219.275 138.971 215.733 139.277 212.271C139.913 205.336 141.659 198.676 143.827 192.23C145.993 185.775 148.601 179.512 151.464 173.386C152.179 171.854 152.913 170.332 153.662 168.817C154.412 167.303 155.166 165.791 155.992 164.318C157.658 161.377 159.495 158.531 161.819 155.979C162.035 155.742 162.401 155.726 162.636 155.944C162.808 156.103 162.863 156.344 162.795 156.554L162.791 156.566Z" fill="#000072"/>
<path d="M181.282 208.48C180.895 208.48 180.507 208.34 180.2 208.054C180.063 207.926 166.238 195.282 145.726 193.736C144.848 193.67 144.189 192.898 144.255 192.012C144.32 191.126 145.087 190.458 145.964 190.528C167.625 192.161 181.773 205.139 182.365 205.691C183.012 206.294 183.051 207.312 182.453 207.964C182.139 208.307 181.711 208.48 181.282 208.48Z" fill="#000072"/>
<path d="M132.635 141.942C174.351 141.942 190.914 123.567 190.914 123.567C190.914 123.567 191.609 125.149 191.947 127.398C192.507 131.121 190.939 134.856 187.953 137.118C181.39 142.091 164.676 151.565 132.614 151.565C100.551 151.565 83.8379 142.091 77.2741 137.118C74.2881 134.856 72.7201 131.121 73.2802 127.398C73.6186 125.149 74.3135 123.567 74.3135 123.567C74.3135 123.567 90.8769 141.942 132.592 141.942" fill="#751313"/>
<g opacity="0.300003">
<g opacity="0.300003">
<path opacity="0.300003" d="M191.797 126.538C191.26 128.873 189.916 130.995 187.955 132.481C181.391 137.453 164.678 146.928 132.616 146.928C100.553 146.928 83.8397 137.453 77.276 132.481C75.3152 130.995 73.9713 128.873 73.4346 126.538C73.3792 126.812 73.3274 127.099 73.2822 127.4C72.722 131.123 74.29 134.858 77.276 137.12C83.8397 142.093 100.553 151.567 132.616 151.567C164.678 151.567 181.391 142.093 187.955 137.12C190.941 134.858 192.509 131.123 191.949 127.4C191.904 127.099 191.852 126.812 191.797 126.538Z" fill="#000072"/>
</g>
</g>
<path d="M132.614 153.176C100.595 153.176 83.5981 143.922 76.3166 138.406C72.8254 135.761 71.0577 131.451 71.7036 127.159C72.0696 124.724 72.8233 122.99 72.8553 122.917C73.0738 122.42 73.5266 122.067 74.059 121.981C74.5905 121.893 75.131 122.084 75.4941 122.486C75.6541 122.663 92.1894 140.336 132.592 140.336V143.553C98.0845 143.553 80.58 131.278 75.0726 126.498C74.9931 126.851 74.9187 127.234 74.8574 127.641C74.3881 130.762 75.6812 133.901 78.2327 135.834C85.1961 141.109 101.521 149.959 132.614 149.959C163.707 149.959 180.032 141.109 186.996 135.834C189.547 133.901 190.84 130.762 190.37 127.641C190.309 127.234 190.235 126.851 190.155 126.498C184.648 131.278 167.143 143.553 132.636 143.553V140.336C173.176 140.336 189.573 122.665 189.734 122.486C190.097 122.084 190.637 121.894 191.169 121.981C191.701 122.067 192.154 122.42 192.373 122.917C192.405 122.99 193.158 124.724 193.524 127.159C194.17 131.451 192.403 135.761 188.912 138.406C181.63 143.922 164.633 153.176 132.614 153.176Z" fill="#000072"/>
<g opacity="0.3">
<path d="M6.51384 20.6C6.51384 20.6 7.40801 24.4754 4.44336 28.8022C4.44336 28.8022 9.28682 28.6531 11.6162 31.8594C11.6162 31.8594 10.8397 27.1991 14.1673 23.6573C14.1673 23.6573 9.61957 24.4775 6.51384 20.6Z" fill="white"/>
</g>
<path d="M74.3477 137.169L100.068 196.209" stroke="#000072" stroke-miterlimit="10"/>
<path d="M164.041 196.206L190.307 137.166" stroke="#000072" stroke-miterlimit="10"/>
<path fill-rule="evenodd" clip-rule="evenodd" d="M130.726 161.277C130.715 161.42 130.63 161.547 130.573 161.687C130.518 161.822 130.467 161.968 130.42 162.11C130.295 162.48 130.179 162.845 130.19 163.325C130.614 163.382 131.148 163.34 131.531 163.285C131.74 163.379 131.874 163.524 132.068 163.629C132.031 163.45 132.205 163.416 132.355 163.365C132.289 163.442 132.186 163.495 132.221 163.642C132.308 163.682 132.322 163.576 132.393 163.563C132.492 163.64 132.617 163.636 132.719 163.563C132.793 163.574 132.773 163.649 132.853 163.655C132.967 163.553 132.805 163.441 132.757 163.365C132.9 163.416 133.062 163.455 133.045 163.616C133.2 163.551 133.388 163.395 133.543 163.285C133.942 163.343 134.453 163.37 134.923 163.338C134.907 162.534 134.624 161.915 134.348 161.291C134.425 161.284 134.424 161.353 134.444 161.383C134.729 161.808 134.983 162.294 135.191 162.81C135.222 162.885 135.273 162.987 135.306 163.087C135.336 163.175 135.398 163.328 135.383 163.378C135.35 163.486 135.091 163.523 135.038 163.616C134.878 163.486 134.419 163.523 133.984 163.51C133.861 163.506 133.696 163.482 133.62 163.497C133.453 163.53 133.38 163.698 133.294 163.788C133.53 163.799 133.717 163.641 133.927 163.629C134.06 163.621 134.254 163.69 134.425 163.721C134.919 163.812 135.47 163.888 135.92 163.986C135.947 162.923 135.551 162.038 135.019 161.317C135.548 161.82 135.904 162.409 136.169 163.101C136.215 163.22 136.254 163.334 136.284 163.457C136.326 163.63 136.327 163.844 136.456 163.972C136.297 164.092 136.106 164.189 135.939 164.303C135.468 164.109 134.558 163.83 133.792 163.88C133.609 163.892 133.447 163.955 133.313 164.039C133.547 164.103 133.709 164.109 134.022 164.105C134.1 164.103 134.213 164.081 134.272 164.091C134.338 164.103 134.445 164.198 134.54 164.263C135.093 164.645 135.588 164.924 136.245 165.228C136.451 165.322 136.566 165.419 136.801 165.294C136.84 166.548 136.357 167.473 135.766 168.319C135.697 168.417 135.654 168.532 135.536 168.61C135.981 167.887 136.322 167.027 136.322 166.02C136.322 165.915 136.351 165.783 136.322 165.69C136.28 165.558 135.979 165.418 135.805 165.307C135.309 164.992 134.915 164.77 134.367 164.474C134.26 164.416 134.169 164.338 134.08 164.316C133.987 164.293 133.839 164.288 133.735 164.276C133.604 164.262 133.479 164.258 133.371 164.25C133.583 164.407 133.919 164.602 134.214 164.752C134.268 164.785 134.324 164.74 134.387 164.739C134.457 166.211 134.298 167.654 133.697 168.729C133.553 168.985 133.394 169.237 133.141 169.429C133.958 168.412 134.02 166.665 133.85 165.135C134.024 165.031 133.948 164.945 133.792 164.818C133.622 164.679 133.32 164.476 133.122 164.408C133.108 164.477 133.142 164.545 133.179 164.607C133.217 164.669 133.3 164.723 133.313 164.778C133.342 164.897 133.272 165.156 133.237 165.294C133.118 165.749 132.868 166.25 132.643 166.588C132.563 166.581 132.619 166.481 132.566 166.456C132.481 166.459 132.532 166.556 132.489 166.588C132.225 166.278 132 165.764 131.876 165.294C131.832 165.125 131.763 164.923 131.799 164.778C131.828 164.663 132.008 164.559 131.991 164.422C131.816 164.449 131.652 164.57 131.512 164.673C131.372 164.775 131.227 164.886 131.129 165.003C131.14 165.061 131.222 165.071 131.244 165.122C131.118 166.67 131.122 168.414 131.972 169.416C131.882 169.407 131.84 169.329 131.799 169.283C131.008 168.411 130.796 167.066 130.707 165.677C130.687 165.37 130.667 165.069 130.726 164.765C130.742 164.701 130.841 164.796 130.899 164.752C131.201 164.595 131.474 164.417 131.761 164.25C131.511 164.276 131.239 164.268 131.014 164.329C130.818 164.382 130.604 164.529 130.42 164.633C129.857 164.949 129.264 165.292 128.79 165.65C128.694 166.829 129.085 167.779 129.557 168.61C128.877 167.695 128.245 166.679 128.311 165.294C128.571 165.463 128.965 165.187 129.174 165.082C129.754 164.79 130.374 164.412 130.822 164.091C131.147 164.124 131.528 164.098 131.799 164.052C131.461 163.754 130.593 163.903 130.075 164.012C129.727 164.085 129.402 164.19 129.193 164.303C128.994 164.211 128.842 164.087 128.656 163.986C128.792 163.751 128.821 163.356 128.925 163.087C129.178 162.431 129.573 161.851 130.055 161.317C130.043 161.418 129.941 161.506 129.883 161.594C129.463 162.238 129.186 163.037 129.174 163.972C129.617 163.903 130.145 163.818 130.669 163.721C130.839 163.69 131.016 163.626 131.148 163.629C131.361 163.634 131.561 163.786 131.799 163.788C131.743 163.664 131.635 163.575 131.512 163.497C131.117 163.528 130.676 163.479 130.324 163.523C130.288 163.528 130.241 163.542 130.19 163.563C130.194 163.561 130.076 163.616 130.094 163.616C130.014 163.615 129.819 163.425 129.73 163.404C129.914 162.593 130.329 161.942 130.726 161.277Z" fill="#000072"/>
<path fill-rule="evenodd" clip-rule="evenodd" d="M132.619 153.176V175.987V153.176Z" fill="#000072"/>
<path d="M132.619 153.176V175.987" stroke="#000072" stroke-miterlimit="10"/>
<path d="M125.554 153.02C125.554 153.02 126.798 171.707 124.977 175.016" stroke="#000072" stroke-miterlimit="10"/>
<path d="M119.965 152.66C119.965 152.66 122.769 161.306 118.717 172.985" stroke="#000072" stroke-miterlimit="10"/>
<path d="M139.059 153.174C139.059 153.174 137.759 169.731 139.639 175.369" stroke="#000072" stroke-miterlimit="10"/>
<path d="M145.696 152.66C145.696 152.66 142.723 169.079 147.138 172.985" stroke="#000072" stroke-miterlimit="10"/>
<path d="M114.152 155.945C114.152 155.945 116.952 153.251 120.63 155.945C120.63 155.945 122.547 153.271 125.734 156.313C125.734 156.313 127.473 152.982 132.59 155.945C132.59 155.945 134.749 153.161 138.624 155.945C138.624 155.945 141.668 152.854 145.233 155.792C145.233 155.792 148.412 152.303 151.164 155.419" stroke="#000072" stroke-miterlimit="10"/>
<path d="M132.208 160.224C132.108 160.152 132.009 160.085 131.91 160.021C128.425 157.769 125.896 160.286 125.896 160.286C123.311 157.58 120.913 160.286 120.913 160.286C116.895 155.558 114.725 160.286 114.725 160.286" stroke="#000072" stroke-miterlimit="10"/>
<path d="M132.105 160.275C132.105 160.275 135.282 157.705 138.624 160.275C138.624 160.275 141.872 157.094 144.714 160.417C144.714 160.417 148.934 157.141 150.508 160.351" stroke="#000072" stroke-miterlimit="10"/>
<path d="M114.725 168.181C114.725 168.181 117.303 163.898 120.017 168.545C120.017 168.545 124.884 165.155 125.919 169.889C125.919 169.889 129.949 167.823 132.766 171.224C132.766 171.224 135.75 167.704 139.206 170.388C139.206 170.388 141.514 165.006 145.421 169.159C145.421 169.159 147.827 164.67 150.511 167.231" stroke="#000072" stroke-miterlimit="10"/>
<path d="M114.461 170.743C114.461 170.743 117.819 167.309 119.287 171.225C119.287 171.225 124.124 169.02 125.474 172.985C125.474 172.985 130.472 170.342 132.553 174.571C132.553 174.571 135.51 171.762 139.065 173.67C139.065 173.67 142.332 168.715 146.114 171.64C146.114 171.64 148.805 167.005 150.415 169.89" stroke="#000072" stroke-miterlimit="10"/>
<path d="M85.0254 208.055C85.0254 208.055 99.908 192.279 118.72 193.802L122.996 207.047C122.996 207.047 118.374 226.711 89.2344 220.085L85.0254 208.055Z" fill="#000072"/>
<path d="M85.0254 208.055C85.0254 208.055 99.908 192.279 118.72 193.802L122.996 207.047C122.996 207.047 118.374 226.711 89.2344 220.085L85.0254 208.055Z" stroke="#000072" stroke-miterlimit="10"/>
<path d="M141.549 210.3L145.931 191.511L166.582 197.842L178.887 204.886V210.3L175.997 220.084C175.997 220.084 155.323 226.947 141.549 210.3Z" fill="#000072"/>
<path d="M141.549 210.3L145.931 191.511L166.582 197.842L178.887 204.886V210.3L175.997 220.084C175.997 220.084 155.323 226.947 141.549 210.3Z" stroke="#000072" stroke-miterlimit="10"/>
<path d="M37.041 185.275L52.939 226.842" stroke="#000072" stroke-miterlimit="10"/>
<path d="M32.9121 190.524C32.9121 190.524 35.6591 209.765 47.6507 226.53" stroke="#000072" stroke-miterlimit="10"/>
<path d="M43.4922 183.678C43.4922 183.678 55.9094 204.935 57.8278 227.18" stroke="#000072" stroke-miterlimit="10"/>
<path d="M51.459 185.275C51.459 185.275 58.9899 200.414 63.2358 226.842" stroke="#000072" stroke-miterlimit="10"/>
<path d="M31.2246 199.502C31.2246 199.502 31.256 195.245 34.2573 196.895C34.2573 196.895 35.374 189.45 40.2798 194.177C40.2798 194.177 40.4656 186.618 47.3215 191.151C47.3215 191.151 49.2769 185.604 53.3836 190.524C53.3836 190.524 55.4203 189.389 56.7308 191.948" stroke="#000072" stroke-miterlimit="10"/>
<path d="M33.3887 193.125C33.3887 193.125 34.4412 187.619 38.6312 189.443C38.6312 189.443 39.4608 184.917 44.9863 186.422C44.9863 186.422 45.7993 183.463 52.3556 187.246" stroke="#000072" stroke-miterlimit="10"/>
<path d="M31.8086 201.766C31.8086 201.766 32.0399 197.499 35.2407 200.468C35.2407 200.468 36.2492 193.081 41.8412 197.841C41.8412 197.841 41.991 190.608 48.4982 194.696C48.4982 194.696 50.8923 190.657 55.065 194.176C55.065 194.176 55.8102 192.073 57.8924 194.176" stroke="#000072" stroke-miterlimit="10"/>
<path d="M31.8086 205.428C31.8086 205.428 33.1077 201.325 36.662 204.887C36.662 204.887 38.837 198.188 43.4902 202.721C43.4902 202.721 45.3648 193.78 51.0725 199.921C51.0725 199.921 51.9602 194.082 56.4998 198.402C56.4998 198.402 56.8444 194.817 59.2377 197.695" stroke="#000072" stroke-miterlimit="10"/>
<path d="M32.9121 208.525C32.9121 208.525 34.1208 205.146 37.6427 207.572C37.6427 207.572 41.4718 202.238 44.9858 206.058C44.9858 206.058 48.7568 200.317 52.3552 204.68C52.3552 204.68 54.2268 199.293 57.9275 203.043C57.9275 203.043 59.2988 201.035 60.4066 202.772" stroke="#000072" stroke-miterlimit="10"/>
<path d="M34.1855 212.503C34.1855 212.503 36.3143 208.822 39.0359 211.02C39.0359 211.02 41.4207 206.825 46.6175 210.32C46.6175 210.32 49.0906 204.64 54.1793 208.93C54.1793 208.93 56.0195 204.097 59.241 208.479C59.241 208.479 59.2532 203.789 61.5086 206.058" stroke="#000072" stroke-miterlimit="10"/>
<path d="M35.75 217.146V215.966C35.75 215.966 37.1761 211.659 40.5906 214.469C40.5906 214.469 44.1162 210.394 47.8468 213.538C47.8468 213.538 51.7019 208.449 55.189 212.506C55.189 212.506 57.2888 208.058 60.4079 212.489" stroke="#000072" stroke-miterlimit="10"/>
<path d="M38.4043 218.589C38.4043 218.589 38.5364 216.298 41.9192 217.145C41.9192 217.145 45.5451 214.375 49.1503 216.957C49.1503 216.957 51.694 212.408 56.0108 215.856C56.0108 215.856 59 212.311 61.0453 215.313" stroke="#000072" stroke-miterlimit="10"/>
<path d="M40.2832 221.449C40.2832 221.449 41.59 219.445 43.9811 220.866C43.9811 220.866 47.0856 217.829 50.4557 220.357C50.4557 220.357 52.8002 216.774 56.7441 219.352C56.7441 219.352 59.2448 216.085 61.7412 218.59" stroke="#000072" stroke-miterlimit="10"/>
<path d="M42.877 223.479C42.877 223.479 43.2871 221.356 45.53 223.386C45.53 223.386 48.1502 221.689 51.4629 223.479C51.4629 223.479 55.0762 221.195 57.3514 222.994C57.3514 222.994 60.3095 220.751 62.2752 222.891" stroke="#000072" stroke-miterlimit="10"/>
<path d="M46.6602 224.963C46.6602 224.963 48.4026 223.117 52.3559 225.327C52.3559 225.327 54.5258 223.991 56.5133 224.462C56.7972 224.529 57.0774 224.634 57.347 224.784" stroke="#000072" stroke-miterlimit="10"/>
<path d="M57.6445 225.339C57.6445 225.339 59.6547 223.57 63.0693 224.788" stroke="#000072" stroke-miterlimit="10"/>
<path d="M61.5084 205.439C60.9086 206.813 63.236 228.443 63.236 228.443H92.2657L91.6476 226.842L85.0263 214.106L80.8818 202.142C71.49 200.8 62.2713 178.621 62.2713 178.621L55.7344 185.631L57.3475 189.443L60.408 196.576L61.5084 205.439Z" fill="#000072"/>
<path d="M226.994 184.269L212.783 226.842" stroke="#000072" stroke-miterlimit="10"/>
<path d="M230.771 189.466C230.771 189.466 228.244 216.633 216.385 227.494" stroke="#000072" stroke-miterlimit="10"/>
<path d="M221.518 184.012C221.518 184.012 211.894 207.32 207.324 227.103" stroke="#000072" stroke-miterlimit="10"/>
<path d="M213.523 186.054C213.523 186.054 206.518 199.299 202.885 229.564" stroke="#000072" stroke-miterlimit="10"/>
<path d="M233.13 196.644C233.13 196.644 232.364 192.878 229.936 195.413C229.936 195.413 228.921 188.681 224.132 192.838C224.132 192.838 222.78 187.1 218.577 191.51C218.577 191.51 215.305 186.027 211.231 191.51C211.231 191.51 210.389 190.122 208.418 191.947" stroke="#000072" stroke-miterlimit="10"/>
<path d="M233.375 200.455C233.375 200.455 232.475 196.76 229.163 199.502C229.163 199.502 227.237 194.872 222.461 197.842C222.461 197.842 221.342 193.152 216.379 196.207C216.379 196.207 214.912 192.637 209.969 195.173C209.969 195.173 208.813 192.916 206.742 195.373" stroke="#000072" stroke-miterlimit="10"/>
<path d="M233.381 204.886C233.381 204.886 231.489 200.907 228.257 203.484C228.257 203.484 225.237 199.169 220.872 202.615C220.872 202.615 219.221 198.409 215.024 201.281C215.024 201.281 212.877 196.643 208.421 199.92C208.421 199.92 207.604 197.475 204.365 199.501" stroke="#000072" stroke-miterlimit="10"/>
<path d="M232.599 208.48C232.599 208.48 231.484 204.546 227.072 207.809C227.072 207.809 224.066 202.759 219.577 206.498C219.577 206.498 217.637 201.352 213.523 205.556C213.523 205.556 212.226 201.369 207.327 204.551C207.327 204.551 206.61 201.275 204.52 204.086C202.429 206.897 203.967 204.033 203.967 204.033" stroke="#000072" stroke-miterlimit="10"/>
<path d="M231.41 212.386C231.41 212.386 229.814 207.993 225.88 211.442C225.88 211.442 223.418 207.855 218.363 210.121C218.363 210.121 215.307 206.421 211.764 210.119C211.764 210.119 209.351 206.358 206.183 209.491C206.183 209.491 204.949 203.319 201.971 209.284" stroke="#000072" stroke-miterlimit="10"/>
<path d="M228.995 215.433C228.995 215.433 228.898 211.42 224.653 214.648C224.653 214.648 221.856 210.711 216.932 214.412C216.932 214.412 214.27 210.362 210.669 214.642C210.669 214.642 208.216 210.717 205.173 214.517C205.173 214.517 205.078 207.973 200.971 213.103" stroke="#000072" stroke-miterlimit="10"/>
<path d="M226.998 218.829C226.998 218.829 226.366 216.64 222.976 218.331C222.976 218.331 219.293 215.542 215.653 218.259C215.653 218.259 213.552 215.281 209.706 217.95C209.706 217.95 206.542 215.168 204.368 217.834C204.368 217.834 204.56 212.858 199.945 216.678" stroke="#000072" stroke-miterlimit="10"/>
<path d="M224.553 221.486C224.553 221.486 224.033 219.014 221.217 221.486C221.217 221.486 218.019 219.319 214.423 221.937C214.423 221.937 210.885 219.677 208.609 221.937C208.609 221.937 206.17 218.603 203.589 221.937C203.589 221.937 202.799 217.531 200.307 221.162" stroke="#000072" stroke-miterlimit="10"/>
<path d="M222.395 222.758C222.395 222.758 221.228 221.681 220.057 223.24C220.057 223.24 215.382 221.855 213.516 224.637C213.516 224.637 211.508 222.43 207.911 224.637C207.911 224.637 206.154 221.378 203.519 224.637C203.519 224.637 202.067 220.304 199.346 224.637" stroke="#000072" stroke-miterlimit="10"/>
<path d="M185.305 201.791L194.635 192.724L201.974 180.172L202.882 177.386L209.042 184.268L209.525 187.687L206.186 191.509L204.364 196.205L203.587 201.791V204.791L203.524 206.793C203.524 206.793 200.338 221.937 201.974 227.898L173.558 228.608L172.631 226.841L177.272 217.75L182.367 205.69L185.305 201.791Z" fill="#000072"/>
<path d="M180.092 143C180.092 143 157.351 187.498 154.797 199.921" stroke="#000072" stroke-miterlimit="10"/>
<path d="M172.832 146.417C172.832 146.417 150.602 191.284 152.568 195.08" stroke="#000072" stroke-miterlimit="10"/>
<path d="M194.058 143.967C194.058 143.967 177.158 190.384 169.297 201.23" stroke="#000072" stroke-miterlimit="10"/>
<path d="M163.566 153.175C163.566 153.175 168.709 147.687 169.981 152.268C169.981 152.268 173.434 147.141 176.247 150.652C176.247 150.652 182.948 145.212 184.021 151.299C184.021 151.299 190.113 146.458 190.621 153.175C190.621 153.175 192.833 152.543 192.779 158.186C192.779 158.186 194.767 162.569 194.19 164.272" stroke="#000072" stroke-miterlimit="10"/>
<path d="M172.041 148.039C172.041 148.039 176.068 144.372 178.367 146.418C178.367 146.418 183.785 140.88 186.61 145.488C186.61 145.488 191.969 144.533 192.064 149.362C192.064 149.362 194.233 152.107 194.064 153.176C194.064 153.176 191.581 170.002 186.831 180.001C186.831 180.001 180.533 201.79 174.119 203.534" stroke="#000072" stroke-miterlimit="10"/>
<path d="M162.789 156.554C162.789 156.554 166.009 152.502 167.918 156.554C167.918 156.554 172.639 151.965 172.831 156.554C172.831 156.554 180.283 152.921 181.267 157.48C181.267 157.48 186.769 153.525 187.882 160.287C187.882 160.287 193.172 158.292 191.494 165.173C191.494 165.173 194.429 164.399 193.875 168.726" stroke="#000072" stroke-miterlimit="10"/>
<path d="M159.891 161.62C159.891 161.62 164.569 157.213 165.158 162.4C165.158 162.4 169.689 157.952 169.936 163.574C169.936 163.574 178.031 159.384 177.846 165.173C177.846 165.173 183.5 163.356 184.515 168.804C184.515 168.804 189.399 167.161 189.907 171.758C189.907 171.758 193.51 171.532 193.172 174.467" stroke="#000072" stroke-miterlimit="10"/>
<path d="M157.402 167.234C157.402 167.234 161.007 161.165 163.199 167.198C163.199 167.198 166.115 164.545 167.438 168.304C167.438 168.304 174.529 165.917 175.15 171.226C175.15 171.226 179.949 168.186 182.341 172.987C182.341 172.987 187.907 172.061 188.716 175.372C188.716 175.372 191.254 174.575 192.164 177.39" stroke="#000072" stroke-miterlimit="10"/>
<path d="M155.984 170.749C155.984 170.749 159.32 168.99 160.315 172.986C160.315 172.986 163.77 169.938 165.157 173.594C165.157 173.594 170.814 171.412 172.628 175.986C172.628 175.986 178.756 173.643 180.748 177.958C180.748 177.958 184.904 176.844 187.171 179.686C187.171 179.686 189.928 178.642 190.304 181.481" stroke="#000072" stroke-miterlimit="10"/>
<path d="M153.598 175.443C153.598 175.443 158.222 171.978 158.215 177.791C158.215 177.791 162.232 174.924 162.793 178.503C162.793 178.503 169.047 176.675 170.593 181.481C170.593 181.481 175.8 177.655 178.371 183.495C178.371 183.495 183.728 180.603 184.943 185.369" stroke="#000072" stroke-miterlimit="10"/>
<path d="M151.889 181.008C151.889 181.008 155.463 177.122 156.656 181.481C156.656 181.481 159.946 178.673 161.161 182.659C161.161 182.659 166.917 181.05 168.861 185.369C168.861 185.369 174.028 183.133 176.542 187.574C176.542 187.574 181.009 184.703 183.316 189.074" stroke="#000072" stroke-miterlimit="10"/>
<path d="M150.281 184.676C150.281 184.676 153.944 182.391 155.097 185.368C155.097 185.368 158.305 183.133 159.54 186.455C159.54 186.455 165.833 185.149 166.809 189.074C166.809 189.074 172.553 187.417 174.784 191.326C174.784 191.326 179.148 189.767 181.675 192.859C181.675 192.859 182.697 192.241 182.695 195.08" stroke="#000072" stroke-miterlimit="10"/>
<path d="M148.889 188.132C148.889 188.132 152.803 186.108 153.597 188.703C153.597 188.703 157.797 187.006 158.135 189.909C158.135 189.909 165.258 188.284 165.681 192.52C165.681 192.52 171.987 190.615 172.919 195.08C172.919 195.08 178.386 192.812 179.594 197.842C179.594 197.842 181.727 196.822 182.345 199.921" stroke="#000072" stroke-miterlimit="10"/>
<path d="M81.5332 139.761C81.5332 139.761 101.805 173.361 106.542 195.08" stroke="#000072" stroke-miterlimit="10"/>
<path d="M93.1621 146.246C93.1621 146.246 108.306 174.222 113.335 192.736" stroke="#000072" stroke-miterlimit="10"/>
<path d="M71.7812 145.093C71.7812 145.093 89.4355 195.566 95.2166 199.502" stroke="#000072" stroke-miterlimit="10"/>
<path d="M71.0781 154.515C71.0781 154.515 85.3568 199.492 89.6161 201.793" stroke="#000072" stroke-miterlimit="10"/>
<path d="M73.0566 147.125C73.0566 147.125 73.4505 141.845 77.7162 144.903C77.7162 144.903 79.4158 141.121 84.2482 144.421C84.2482 144.421 85.5311 142.396 89.613 144.045" stroke="#000072" stroke-miterlimit="10"/>
<path d="M72.0352 157.48C72.0352 157.48 72.4175 153.765 75.4276 155.218C75.4276 155.218 76.3594 150.07 81.5395 153.668C81.5395 153.668 82.5008 148.253 88.2187 151.567C88.2187 151.567 91.8121 146.821 95.9505 151.567C95.9505 151.567 98.9787 148.73 101.19 151.567" stroke="#000072" stroke-miterlimit="10"/>
<path d="M71.0781 153.021C71.0781 153.021 72.4059 150.759 74.0009 151.568C74.0009 151.568 75.7205 146.651 79.4341 148.841C79.4341 148.841 81.7873 145.277 86.034 147.589C86.034 147.589 90.4555 145.536 93.1654 146.809" stroke="#000072" stroke-miterlimit="10"/>
<path d="M70.5879 164.524C70.5879 164.524 71.0983 162.024 73.9948 163.463C73.9948 163.463 74.394 159.683 77.7131 161.637C77.7131 161.637 78.5645 156.448 84.4717 159.661C84.4717 159.661 85.068 153.606 91.3374 157.48C91.3374 157.48 94.0946 152.837 98.2707 156.185C98.2707 156.185 98.7362 153.541 101.936 155.79" stroke="#000072" stroke-miterlimit="10"/>
<path d="M71.0781 170.363C71.0781 170.363 72.3996 166.226 75.7724 168.726C75.7724 168.726 76.4699 164.314 79.9372 167.232C79.9372 167.232 82.506 163.177 86.268 165.173C86.268 165.173 89.6527 159.671 94.0415 162.823C94.0415 162.823 97.2283 158.586 100.669 161.088C100.669 161.088 100.791 159.471 104.048 160.287" stroke="#000072" stroke-miterlimit="10"/>
<path d="M72.0508 174.467C72.0508 174.467 72.9587 170.213 77.2332 172.986C77.2332 172.986 79.2181 170.076 81.8041 172.036C81.8041 172.036 84.0286 167.115 88.6247 169.945C88.6247 169.945 91.7099 165.465 96.6655 168.285C96.6655 168.285 98.93 164.544 103.293 166.687C103.293 166.687 102.922 164.488 106.235 165.888" stroke="#000072" stroke-miterlimit="10"/>
<path d="M73.7285 178.621C73.7285 178.621 74.7236 174.888 78.1738 176.762C78.1738 176.762 80.2296 172.855 83.3522 175.801C83.3522 175.801 84.7288 170.834 90.571 174.229C90.571 174.229 93.3586 169.894 98.4944 172.014C98.4944 172.014 100.533 167.915 105.131 170.423C105.131 170.423 106.087 168.388 108.408 170.015" stroke="#000072" stroke-miterlimit="10"/>
<path d="M73.998 182.328C73.998 182.328 75.3982 177.548 79.2225 178.622C79.2225 178.622 82.6588 176.757 84.3909 178.465C84.3909 178.465 89.3312 174.723 91.8681 177.389C91.8681 177.389 96.9729 173.32 100.066 175.911C100.066 175.911 103.552 172.96 106.965 175.015C106.965 175.015 108.834 172.937 111.144 174.467" stroke="#000072" stroke-miterlimit="10"/>
<path d="M113.336 180.174C113.336 180.174 109.78 175.438 108.955 179.893C108.955 179.893 102.885 176.227 102.313 181.481C102.313 181.481 96.351 176.966 94.2541 182.864C94.2541 182.864 88.1576 179.485 86.608 184.243C86.608 184.243 82.7199 180.143 82.1193 185.369C82.1193 185.369 80.0893 184.587 79.7344 186.615" stroke="#000072" stroke-miterlimit="10"/>
<path d="M114.939 184.243C114.939 184.243 111.652 180.583 110.777 184.732C110.777 184.732 105.945 181.528 103.901 185.861C103.901 185.861 98.6902 183.206 96.6652 188.132C96.6652 188.132 91.0908 184.998 89.612 190.4C89.612 190.4 85.7836 188.838 84.4738 192.737C84.4738 192.737 82.5055 192.211 81.5332 195.08" stroke="#000072" stroke-miterlimit="10"/>
<path d="M115.71 187.381C115.71 187.381 113.229 182.862 112.07 188.489C112.07 188.489 108.991 186.559 105.386 190.525C105.386 190.525 100.775 188.932 98.2443 192.01C98.2443 192.01 94.5922 190.997 91.9423 193.698C91.7968 193.847 91.6543 194.006 91.5156 194.178" stroke="#000072" stroke-miterlimit="10"/>
<path d="M91.645 194.005C91.645 194.005 88.2392 193.693 86.47 196.895C86.47 196.895 84.0124 197.001 82.8776 199.921C81.743 202.841 82.3452 199.502 82.3452 199.502" stroke="#000072" stroke-miterlimit="10"/>
<path fill-rule="evenodd" clip-rule="evenodd" d="M132.308 21.0416C171.428 21.0416 201.522 62.0985 201.522 96.3811C201.522 130.664 146.363 144.518 132.308 145.194C118.253 145.87 60.2266 129.659 60.2266 95.3758C60.2266 61.0925 93.1884 21.0416 132.308 21.0416Z" fill="#FF850B"/>
<path d="M132.308 22.7092C93.2947 22.7092 61.8792 62.4623 61.8792 95.3763C61.8792 103.935 65.7367 111.984 73.3451 119.299C90.2923 135.592 121.213 143.546 131.436 143.547C131.717 143.547 131.98 143.541 132.229 143.529C139.636 143.173 156.7 139.329 171.446 131.899C184.412 125.366 199.868 113.901 199.868 96.3814C199.868 62.3123 170.356 22.7092 132.308 22.7092ZM131.478 146.88C120.511 146.88 88.9043 138.865 71.0635 121.712C62.7753 113.743 58.5723 104.882 58.5723 95.3763C58.5723 78.2161 66.7261 59.0922 80.3838 44.2201C94.8839 28.4307 113.809 19.3749 132.308 19.3749C150.921 19.3749 168.866 28.3931 182.838 44.7685C195.572 59.6941 203.175 78.9886 203.175 96.3814C203.175 111.597 192.714 124.91 172.924 134.882C157.748 142.529 140.083 146.489 132.386 146.86C132.102 146.873 131.798 146.88 131.478 146.88Z" fill="#000072"/>
<g opacity="0.5">
<g opacity="0.5">
<path opacity="0.5" fill-rule="evenodd" clip-rule="evenodd" d="M132.301 21.0427C156.344 21.0427 176.975 36.5536 189.308 56.4663C189.436 57.1098 189.56 57.7559 189.668 58.4072C178.408 41.7643 160.852 30.7898 141.409 27.8293C142.656 28.3042 143.379 28.8682 143.379 29.4736C143.379 31.1658 137.727 32.5374 130.755 32.5374C123.784 32.5374 118.132 31.1658 118.132 29.4736C118.132 28.8682 118.854 28.3042 120.101 27.8293C100.658 30.7904 83.1033 41.7656 71.8438 58.4072L71.906 58.0564C84.8891 37.3482 107.341 21.0427 132.301 21.0427Z" fill="white"/>
</g>
</g>
<path fill-rule="evenodd" clip-rule="evenodd" d="M199.664 106.915C189.937 133.539 144.824 144.592 132.308 145.194C119.921 145.789 73.3875 133.265 62.5156 106.817C63.3492 92.4114 70.6074 88.474 84.0301 95.514C89.55 98.4085 95.1653 101.428 99.6147 99.1288C125.012 86.0027 140.52 88.4773 157.903 99.1288C166.032 104.11 173.966 96.6796 178.943 94.4142C194.795 87.1968 202.068 92.2446 199.664 106.915Z" fill="white"/>
<g opacity="0.300003">
<g opacity="0.300003">
<path opacity="0.300003" fill-rule="evenodd" clip-rule="evenodd" d="M201.229 90.3934C201.426 92.4053 201.53 94.4043 201.53 96.3801C201.53 97.6432 201.447 98.874 201.302 100.082L201.317 99.721C199.385 122.6 153.694 140.069 129.114 141.48C108.596 142.658 67.6163 120.386 60.7258 99.721C60.7386 100.149 60.7604 100.577 60.7796 101.004C60.4285 99.1841 60.2344 97.3098 60.2344 95.3748C60.2344 93.8345 60.3036 92.2825 60.4336 90.7222L60.5406 90.3882C76.5583 113.61 102.835 127.455 130.887 127.455C158.937 127.455 185.211 113.61 201.229 90.3934Z" fill="#000072"/>
</g>
</g>
<path fill-rule="evenodd" clip-rule="evenodd" d="M107 79.4395C104.812 78.4561 102.573 76.8079 100.285 74.4981C96.3181 74.6796 93.1445 78.9523 93.1445 84.196C93.1445 89.5554 96.4584 93.9004 100.546 93.9004C104.635 93.9004 107.949 89.5554 107.949 84.196C107.949 82.4678 107.604 80.8454 107 79.4395Z" fill="#000072"/>
<path d="M169.121 70.3011C166.451 73.8773 163.826 76.6427 161.246 78.597C157.451 81.4722 153.344 81.9755 152.889 78.809C154.93 78.5732 157.057 77.6163 159.27 75.9403C164.723 71.8079 166.428 69.1472 169.121 70.3011Z" fill="#000072"/>
<path fill-rule="evenodd" clip-rule="evenodd" d="M156.674 79.4395C158.861 78.4561 161.1 76.8079 163.389 74.4981C167.356 74.6796 170.529 78.9523 170.529 84.196C170.529 89.5554 167.216 93.9004 163.127 93.9004C159.039 93.9004 155.725 89.5554 155.725 84.196C155.725 82.4678 156.069 80.8454 156.674 79.4395Z" fill="#000072"/>
<path fill-rule="evenodd" clip-rule="evenodd" d="M160.072 81.7259C158.871 81.7259 157.898 82.7713 157.898 84.0602C157.898 85.3492 158.871 86.3945 160.072 86.3945C161.272 86.3945 162.244 85.3492 162.244 84.0602C162.244 82.7713 161.272 81.7259 160.072 81.7259Z" fill="white"/>
<path fill-rule="evenodd" clip-rule="evenodd" d="M130.88 85.8978C136.173 85.8978 140.464 88.7826 140.464 92.3407C140.464 95.8994 136.173 98.7842 130.88 98.7842C125.586 98.7842 121.295 95.8994 121.295 92.3407C121.295 88.7826 125.586 85.8978 130.88 85.8978Z" fill="#000072"/>
<path d="M140.04 106.681C136.666 106.681 133.403 105.416 130.899 103.155C128.102 105.723 124.247 106.918 120.458 106.31C116.056 105.605 112.323 102.563 110.715 98.3713C110.386 97.5124 110.809 96.5471 111.661 96.2148C112.512 95.8829 113.47 96.3097 113.799 97.1683C114.984 100.257 117.734 102.498 120.977 103.017C124.222 103.537 127.524 102.266 129.6 99.7019C129.91 99.3189 130.373 99.0944 130.863 99.089C131.358 99.0896 131.82 99.298 132.139 99.6739C134.304 102.232 137.575 103.591 140.903 103.31C144.226 103.029 147.232 101.138 148.943 98.2512C149.412 97.4605 150.428 97.2028 151.211 97.6758C151.994 98.1481 152.25 99.1719 151.781 99.962C149.525 103.768 145.562 106.262 141.179 106.632C140.799 106.665 140.419 106.681 140.04 106.681Z" fill="#000072"/>
<path fill-rule="evenodd" clip-rule="evenodd" d="M130.884 100.757C134.33 104.06 137.716 105.465 141.043 104.972C141.866 126.746 119.975 125.859 120.72 104.664C124.798 105.186 128.185 103.884 130.884 100.757Z" fill="#000072"/>
<path d="M122.367 106.443C122.531 111.991 124.482 116.353 127.733 118.294C129.88 119.575 132.307 119.594 134.391 118.342C137.503 116.473 139.292 112.29 139.407 106.729C136.594 106.638 133.767 105.41 130.968 103.063C128.559 105.311 125.702 106.444 122.442 106.444C122.417 106.444 122.392 106.444 122.367 106.443ZM131.131 122.596C129.394 122.596 127.648 122.118 126.048 121.163C121.341 118.353 118.797 112.317 119.069 104.604L119.133 102.78L120.929 103.01C124.46 103.461 127.304 102.365 129.637 99.6616L130.771 98.3472L132.023 99.5475C135.111 102.506 137.986 103.741 140.803 103.321L142.626 103.051L142.696 104.907C142.986 112.568 140.575 118.509 136.083 121.207C134.541 122.133 132.84 122.596 131.131 122.596Z" fill="#000072"/>
<path fill-rule="evenodd" clip-rule="evenodd" d="M131.06 112.798C128.117 112.798 125.352 114.219 123.623 116.619C127.603 122.334 134.659 122.428 138.461 116.571C136.73 114.2 133.982 112.798 131.06 112.798Z" fill="#FF0066"/>
<path d="M125.768 116.657C127.301 118.36 129.229 119.284 131.229 119.265C133.163 119.234 134.946 118.313 136.35 116.647C134.951 115.264 133.048 114.464 131.064 114.464C129.072 114.464 127.167 115.267 125.768 116.657ZM131.126 122.601C127.721 122.601 124.502 120.776 122.274 117.576L121.596 116.602L122.289 115.639C124.323 112.816 127.603 111.13 131.064 111.13C134.497 111.13 137.762 112.794 139.796 115.581L140.477 116.514L139.849 117.483C137.774 120.679 134.652 122.544 131.283 122.599C131.231 122.6 131.178 122.601 131.126 122.601Z" fill="#000072"/>
<path fill-rule="evenodd" clip-rule="evenodd" d="M193.474 61.4961C182.856 43.8033 170.125 31.8247 155.281 25.562C184.399 -15.5788 197.129 -3.60086 193.474 61.4961Z" fill="#FF850B"/>
<path d="M157.814 24.8624C170.846 30.8597 182.349 41.3722 192.081 56.1722C193.857 16.0612 188.461 5.38647 183.498 3.6263C179.71 2.28397 172.2 4.95332 157.814 24.8624ZM194.818 66.9639L192.054 62.3594C181.67 45.0571 169.081 33.1942 154.638 27.1002L152.727 26.2939L153.93 24.5937C167.249 5.7748 177.277 -2.11549 184.595 0.480919C193.93 3.79184 197.274 23.2098 195.12 61.5906L194.818 66.9639Z" fill="#000072"/>
<path fill-rule="evenodd" clip-rule="evenodd" d="M152.749 63.6488C155.198 62.6363 157.667 63.0033 158.262 64.4687C158.858 65.9341 157.356 67.9434 154.908 68.9565C152.459 69.9689 149.99 69.6013 149.394 68.1359C148.798 66.6706 150.301 64.6612 152.749 63.6488Z" fill="white"/>
<path fill-rule="evenodd" clip-rule="evenodd" d="M110.087 63.5516C107.638 62.5385 105.17 62.9062 104.574 64.3714C103.978 65.8369 105.48 67.8462 107.929 68.8586C110.377 69.8711 112.846 69.5041 113.442 68.0388C114.038 66.5734 112.536 64.564 110.087 63.5516Z" fill="white"/>
<path fill-rule="evenodd" clip-rule="evenodd" d="M101.634 81.7259C100.434 81.7259 99.4609 82.7713 99.4609 84.0602C99.4609 85.3492 100.434 86.3945 101.634 86.3945C102.834 86.3945 103.807 85.3492 103.807 84.0602C103.807 82.7713 102.834 81.7259 101.634 81.7259Z" fill="white"/>
<path fill-rule="evenodd" clip-rule="evenodd" d="M69.3969 62.3398C80.0145 44.6464 92.7452 32.6684 107.589 26.4052C78.4716 -14.7357 65.7409 -2.75707 69.3969 62.3398Z" fill="#FF850B"/>
<path d="M81.1341 4.17824C80.4696 4.17824 79.8832 4.28671 79.366 4.47026C74.4029 6.23052 69.0074 16.905 70.7831 57.016C80.5146 42.2164 92.0173 31.7039 105.049 25.706C92.6283 8.5159 85.3326 4.17824 81.1341 4.17824ZM68.0471 67.8086L67.7452 62.4347C65.5898 24.0538 68.9336 4.63589 78.2688 1.3247C85.5825 -1.26856 95.6136 6.61719 108.934 25.4373L110.137 27.1375L108.226 27.9438C93.7817 34.0385 81.193 45.9017 70.8104 63.2037L68.0471 67.8086Z" fill="#000072"/>
<g opacity="0.649994">
<g opacity="0.649994">
<path opacity="0.649994" fill-rule="evenodd" clip-rule="evenodd" d="M103.953 28.0781C105.155 27.4792 106.371 26.9203 107.602 26.4002C89.5558 0.901905 77.8073 -4.18227 72.3496 11.1271C78.1617 0.361763 88.6952 6.01132 103.951 28.0768L103.953 28.0781Z" fill="white"/>
</g>
</g>
<path fill-rule="evenodd" clip-rule="evenodd" d="M77.3446 50.3467C82.5205 43.8916 88.3864 38.304 94.943 33.5856C80.2452 4.72509 74.3787 10.3119 77.3446 50.3467Z" fill="#000072"/>
<path d="M81.1304 17.1182C81.058 17.1182 81.0086 17.1279 80.9798 17.1361C80.8028 17.1864 79.2319 17.8391 78.5597 25.1894C78.1068 30.142 78.1604 37.1743 78.717 46.1312C82.9906 41.2558 87.7184 36.8805 92.824 33.0786C85.0902 18.1734 81.8821 17.1182 81.1304 17.1182ZM76.0098 54.666L75.6993 50.4701C73.4424 20.0062 76.6488 14.9019 80.0834 13.9266C84.1907 12.7574 89.0775 18.4111 96.4172 32.8233L97.0701 34.1051L95.9068 34.942C89.5049 39.549 83.6932 45.0843 78.6334 51.3943L76.0098 54.666Z" fill="#000072"/>
<g opacity="0.300003">
<g opacity="0.300003">
<path opacity="0.300003" fill-rule="evenodd" clip-rule="evenodd" d="M79.2599 16.4123C73.8964 20.4569 70.4319 31.3998 68.8672 49.24C68.9614 53.3368 69.1389 57.7025 69.3991 62.3389C70.1923 60.8923 71.031 59.4625 71.9172 58.0553L71.855 58.4062C76.1396 51.8165 80.7484 46.1038 85.68 41.2671C82.7961 44.0097 80.0787 46.9625 77.5274 50.1245C77.4774 50.1864 77.4274 50.2479 77.3774 50.3111C77.3729 50.3163 77.3685 50.3221 77.3634 50.3292C77.3589 50.3344 77.3551 50.3396 77.3505 50.3447C75.9134 30.947 76.5503 19.6364 79.2599 16.4123ZM183.614 15.5692C188.978 19.6144 192.442 30.5567 194.006 48.3968C193.912 52.4936 193.735 56.86 193.475 61.4958C192.681 60.0491 191.842 58.6199 190.956 57.2121L191.018 57.5629C186.734 50.9734 182.126 45.2606 177.193 40.4246C180.078 43.1673 182.795 46.1199 185.346 49.2819C185.396 49.3433 185.446 49.4053 185.496 49.468C185.5 49.4738 185.505 49.4796 185.51 49.486C185.515 49.4919 185.518 49.4964 185.523 49.5023C186.961 30.1045 186.323 18.7932 183.614 15.5692Z" fill="#000072"/>
</g>
</g>
<g opacity="0.649994">
<g opacity="0.649994">
<path opacity="0.649994" fill-rule="evenodd" clip-rule="evenodd" d="M158.932 27.2384C157.731 26.6394 156.514 26.0805 155.283 25.5611C173.329 0.0628223 185.079 -5.022 190.536 10.2874C184.724 -0.47797 174.19 5.17215 158.934 27.2378L158.932 27.2384Z" fill="white"/>
</g>
</g>
<path fill-rule="evenodd" clip-rule="evenodd" d="M185.516 49.5029C180.341 43.0471 174.475 37.4596 167.918 32.7411C182.616 3.88065 188.483 9.46803 185.516 49.5029Z" fill="#000072"/>
<path d="M170.043 32.2367C175.149 36.0393 179.877 40.415 184.15 45.2897C184.706 36.3327 184.76 29.3005 184.307 24.3478C183.635 16.9974 182.064 16.3445 181.887 16.2944C181.561 16.2031 178.522 15.8953 170.043 32.2367ZM186.856 53.8252L184.233 50.553C179.175 44.2438 173.364 38.7081 166.96 34.1001L165.797 33.2632L166.45 31.9815C173.789 17.5703 178.671 11.9169 182.784 13.085C186.218 14.0602 189.425 19.1646 187.167 49.6289L186.856 53.8252Z" fill="#000072"/>
<path d="M81.1348 4.17843C80.4702 4.17843 79.8839 4.28691 79.3667 4.47045C74.4035 6.23071 69.0075 16.9054 70.7833 57.0165C80.5152 42.2166 92.0179 31.7039 105.05 25.7062C92.6289 8.51609 85.3333 4.17843 81.1348 4.17843ZM68.0468 67.8086L67.7449 62.4349C65.59 24.054 68.9343 4.6358 78.2694 1.32489C85.5831 -1.26837 95.6143 6.61738 108.934 25.4375L110.138 27.1377L108.227 27.944C93.7823 34.0387 81.1937 45.9019 70.8103 63.2039L68.0468 67.8086Z" fill="#000072"/>
<path d="M132.308 22.7092C93.2947 22.7092 61.8792 62.4623 61.8792 95.3763C61.8792 103.935 65.7367 111.984 73.3451 119.299C90.2923 135.592 121.213 143.546 131.436 143.547C131.717 143.547 131.98 143.541 132.229 143.529C139.636 143.173 156.7 139.329 171.446 131.899C184.412 125.366 199.868 113.901 199.868 96.3814C199.868 62.3123 170.356 22.7092 132.308 22.7092ZM131.478 146.88C120.511 146.88 88.9043 138.865 71.0635 121.712C62.7753 113.743 58.5723 104.882 58.5723 95.3763C58.5723 78.2161 66.7261 59.0922 80.3838 44.2201C94.8839 28.4307 113.809 19.3749 132.308 19.3749C150.921 19.3749 168.866 28.3931 182.838 44.7685C195.572 59.6941 203.175 78.9886 203.175 96.3814C203.175 111.597 192.714 124.91 172.924 134.882C157.748 142.529 140.083 146.489 132.386 146.86C132.102 146.873 131.798 146.88 131.478 146.88Z" fill="#000072"/>
<g opacity="0.559998">
<g opacity="0.559998">
<path opacity="0.559998" fill-rule="evenodd" clip-rule="evenodd" d="M133.994 88.4795C135.439 88.8639 136.508 89.5643 136.383 90.045C136.257 90.525 134.984 90.6032 133.539 90.2188C132.093 89.835 131.023 89.134 131.149 88.6533C131.274 88.1733 132.548 88.0951 133.994 88.4795Z" fill="white"/>
</g>
</g>
<path d="M95.75 70.3011C98.4206 73.8773 101.046 76.6427 103.625 78.597C107.42 81.4722 111.528 81.9755 111.983 78.809C109.942 78.5732 107.814 77.6163 105.601 75.9403C100.149 71.8079 98.443 69.1472 95.75 70.3011Z" fill="#000072"/>
<path d="M157.814 24.8624C170.846 30.8597 182.349 41.3722 192.081 56.1722C193.857 16.0612 188.461 5.38647 183.498 3.6263C179.71 2.28397 172.2 4.95332 157.814 24.8624ZM194.818 66.9639L192.054 62.3594C181.67 45.0571 169.081 33.1942 154.638 27.1002L152.727 26.2939L153.93 24.5937C167.249 5.7748 177.277 -2.11549 184.595 0.480919C193.93 3.79184 197.274 23.2098 195.12 61.5906L194.818 66.9639Z" fill="#000072"/>
</g>
<defs>
<filter id="filter0_d_39_2037" x="0" y="-0.000366211" width="264" height="246" filterUnits="userSpaceOnUse" color-interpolation-filters="sRGB">
<feFlood flood-opacity="0" result="BackgroundImageFix"/>
<feColorMatrix in="SourceAlpha" type="matrix" values="0 0 0 0 0 0 0 0 0 0 0 0 0 0 0 0 0 0 127 0" result="hardAlpha"/>
<feOffset dy="4"/>
<feGaussianBlur stdDeviation="2"/>
<feComposite in2="hardAlpha" operator="out"/>
<feColorMatrix type="matrix" values="0 0 0 0 0 0 0 0 0 0 0 0 0 0 0 0 0 0 0.25 0"/>
<feBlend mode="normal" in2="BackgroundImageFix" result="effect1_dropShadow_39_2037"/>
<feBlend mode="normal" in="SourceGraphic" in2="effect1_dropShadow_39_2037" result="shape"/>
</filter>
</defs>
</svg>
