<?xml version="1.0" standalone="no"?>
<!DOCTYPE svg PUBLIC "-//W3C//DTD SVG 20010904//EN"
 "http://www.w3.org/TR/2001/REC-SVG-20010904/DTD/svg10.dtd">
<svg version="1.0" xmlns="http://www.w3.org/2000/svg"
 width="592.000000pt" height="592.000000pt" viewBox="0 0 592.000000 592.000000"
 preserveAspectRatio="xMidYMid meet">
<metadata>
Created by potrace 1.14, written by Peter Selinger 2001-2017
</metadata>
<g transform="translate(0.000000,592.000000) scale(0.100000,-0.100000)"
fill="#000000" stroke="none">
<path d="M4039 5676 c-63 -26 -129 -60 -129 -67 0 -4 -9 -10 -20 -14 -34 -11
-221 -206 -318 -332 l-94 -120 -51 20 c-123 47 -318 81 -462 80 -119 0 -280
-24 -400 -58 -5 -1 -13 -3 -17 -4 -4 -1 -36 -13 -70 -27 l-63 -25 -25 29 c-46
53 -60 72 -60 81 0 5 -3 11 -7 13 -5 2 -32 32 -61 68 -270 329 -495 428 -631
278 -29 -32 -96 -148 -86 -148 3 0 -1 -13 -10 -30 -9 -16 -13 -30 -11 -30 3 0
1 -12 -4 -26 -10 -27 -37 -182 -46 -264 -14 -129 -18 -455 -8 -690 l5 -145
-36 -74 c-35 -70 -92 -207 -101 -243 -2 -10 -6 -26 -9 -35 -29 -106 -35 -132
-39 -162 -3 -20 -5 -36 -6 -36 -7 0 -13 -103 -13 -210 0 -106 4 -144 22 -203
24 -78 88 -210 115 -237 9 -9 16 -20 16 -24 0 -4 38 -48 84 -96 l83 -89 -12
-47 c-13 -49 -13 -103 -1 -157 5 -23 1 -52 -14 -100 -12 -37 -23 -78 -25 -92
-2 -14 -8 -37 -14 -52 -6 -16 -9 -28 -6 -28 2 0 0 -14 -5 -31 -5 -17 -12 -59
-15 -93 -4 -33 -10 -79 -14 -101 -6 -36 -5 -275 1 -365 3 -31 0 -35 -24 -38
-38 -4 -237 -201 -294 -291 -2 -1 -20 6 -41 18 -69 37 -124 50 -199 47 -124
-5 -243 -77 -294 -176 -41 -80 -57 -150 -57 -254 -1 -146 37 -274 119 -403 36
-57 130 -163 144 -163 3 0 14 -9 26 -20 12 -11 28 -20 35 -20 7 0 13 -4 13 -8
0 -5 19 -15 43 -21 23 -7 47 -17 52 -21 6 -4 27 -11 49 -14 21 -4 42 -9 47
-12 5 -3 224 -5 488 -5 462 0 479 -1 497 -20 44 -45 95 -89 105 -89 4 0 14 -6
21 -13 15 -15 84 -44 125 -52 137 -27 305 31 382 132 l33 42 220 0 220 0 48
-52 c47 -51 119 -95 192 -117 39 -12 134 -14 182 -5 42 9 126 46 126 56 0 5 6
9 14 9 7 0 39 24 70 54 l56 54 462 0 c255 1 479 3 498 7 99 17 194 56 265 110
42 33 105 94 105 103 0 4 11 19 25 34 14 15 25 30 25 33 0 3 11 22 24 43 12
20 24 42 26 47 1 6 6 20 11 33 5 12 13 33 19 48 5 14 12 37 15 52 2 15 9 50
14 77 21 109 -2 265 -53 360 -37 71 -117 129 -222 163 -73 23 -208 3 -278 -43
-24 -16 -46 -14 -46 6 0 15 -85 108 -140 155 -14 11 -34 32 -45 48 -25 34 -75
66 -104 66 -20 0 -20 3 -15 78 11 139 5 349 -12 427 -4 21 -11 58 -20 115 -3
19 -13 60 -21 90 -8 30 -18 69 -23 85 -4 17 -12 42 -18 56 -6 15 -9 29 -6 32
27 27 19 186 -13 235 -14 22 -13 25 21 58 73 71 189 262 199 329 1 11 5 25 9
30 33 55 29 324 -7 495 -3 14 -7 36 -10 50 -9 52 -66 219 -105 309 l-39 93 6
166 c13 339 4 702 -21 835 -3 15 -10 54 -16 86 -24 130 -75 246 -134 304 -63
60 -148 81 -217 53z"/>
<path d="M76 5135 c-9 -26 -7 -32 5 -12 6 10 9 21 6 23 -2 3 -7 -2 -11 -11z"/>
<path d="M120 5129 c-7 -11 -9 -23 -6 -27 3 -3 6 0 6 7 0 7 4 10 8 7 4 -2 8 4
8 15 0 24 -3 24 -16 -2z"/>
<path d="M162 5120 c7 -10 14 -18 15 -16 6 6 -9 36 -18 36 -5 0 -4 -9 3 -20z"/>
<path d="M47 5079 c7 -7 15 -10 18 -7 3 3 -2 9 -12 12 -14 6 -15 5 -6 -5z"/>
<path d="M145 5079 c-4 -6 -5 -12 -2 -15 2 -3 7 2 10 11 7 17 1 20 -8 4z"/>
<path d="M115 5071 c-3 -5 -2 -12 3 -15 5 -3 9 1 9 9 0 17 -3 19 -12 6z"/>
<path d="M75 5061 c-3 -5 0 -13 6 -17 7 -4 9 -3 5 4 -3 5 0 13 6 15 9 4 10 6
1 6 -6 1 -14 -3 -18 -8z"/>
<path d="M35 5049 c-11 -16 -1 -19 13 -3 7 8 8 14 3 14 -5 0 -13 -5 -16 -11z"/>
<path d="M120 5036 c0 -2 7 -7 16 -10 8 -3 12 -2 9 4 -6 10 -25 14 -25 6z"/>
<path d="M95 5020 c3 -5 8 -10 11 -10 2 0 4 5 4 10 0 6 -5 10 -11 10 -5 0 -7
-4 -4 -10z"/>
<path d="M145 5000 c-3 -6 1 -7 9 -4 18 7 21 14 7 14 -6 0 -13 -4 -16 -10z"/>
<path d="M71 2193 c-1 -26 -7 -65 -13 -88 -6 -22 -12 -45 -14 -52 -1 -7 -12
-26 -23 -42 l-22 -30 33 -6 c18 -3 42 -7 53 -8 33 -5 93 -34 117 -56 31 -29
35 -27 33 22 -2 47 28 139 56 176 11 13 19 26 19 30 0 3 -23 7 -52 9 -58 2
-123 30 -160 67 l-25 25 -2 -47z"/>
<path d="M5413 2225 c0 -8 4 -15 8 -15 4 0 2 -12 -6 -27 -8 -15 -12 -30 -9
-35 3 -4 0 -8 -7 -8 -7 0 -9 -3 -6 -6 4 -4 -3 -21 -15 -38 -12 -17 -18 -28
-13 -24 4 4 22 1 41 -7 28 -12 32 -11 27 1 -3 8 -9 11 -14 8 -5 -3 -9 -1 -9 4
0 5 18 9 40 9 22 0 40 -4 40 -9 0 -4 5 -8 11 -8 5 0 7 5 4 10 -3 6 -1 10 5 10
7 0 10 -6 7 -12 -2 -7 -12 -12 -21 -12 -9 1 -16 -3 -16 -9 0 -6 -6 -2 -14 9
-8 10 -17 16 -21 13 -8 -8 24 -41 34 -35 4 3 14 -4 21 -15 21 -28 25 -24 25
29 l0 47 -67 -1 -67 0 25 21 c38 33 85 58 82 44 -2 -6 3 -14 11 -17 8 -2 11 0
8 5 -3 5 3 10 14 10 17 2 15 -3 -13 -27 -18 -17 -28 -30 -22 -30 5 0 16 6 23
13 11 10 13 10 7 0 -4 -7 -2 -13 3 -13 6 0 11 9 11 21 0 11 5 17 10 14 6 -3
10 0 10 9 0 8 3 16 8 19 4 2 2 2 -5 1 -7 -2 -14 0 -17 4 -2 4 -19 8 -38 7 -20
0 -38 7 -46 18 -7 9 -18 15 -23 12 -5 -4 -9 1 -9 9 0 9 -4 16 -8 16 -5 0 -9
-7 -9 -15z m33 -61 c-23 -16 -40 -19 -31 -4 3 6 13 10 21 10 8 0 14 5 14 11 0
5 -5 7 -12 3 -7 -5 -8 -3 -3 5 5 10 10 10 19 1 8 -8 6 -15 -8 -26z"/>
<path d="M5467 2153 c-13 -12 -7 -22 11 -17 14 5 14 4 2 -4 -9 -7 -19 -7 -26
-2 -11 10 -24 4 -24 -11 0 -10 49 -4 62 9 6 6 7 15 4 21 -8 12 -20 14 -29 4z"/>
</g>
</svg>
